<svg width="78" height="74" viewBox="0 0 78 74" fill="none" xmlns="http://www.w3.org/2000/svg">
<path d="M58.6208 52.623C57.0781 50.7734 55.2467 47.9537 54.9715 44.3642C54.7593 41.5917 55.5923 39.8892 56.7001 36.6815C58.7643 30.7051 60.9411 24.4021 59.9652 18.6272C59.8241 17.7913 58.8974 12.7138 54.9715 9.02384C46.0675 0.654523 23.489 3.29314 17.9026 12.8652C17.4891 13.5741 15.2636 17.3874 15.9819 21.8923C16.3282 24.0623 17.0202 25.4448 22.7043 33.6084C25.1614 37.1374 26.9687 38.9821 26.7377 41.6752C26.4738 44.7525 24.5631 47.4674 21.7439 48.7817L15.1149 38.1095C8.56352 40.4412 4.14022 46.1777 4.00328 52.3184C3.81428 60.7899 11.8319 67.8505 20.2725 67.7675C27.3995 67.6972 33.9221 62.5421 35.9757 55.0773L45.7429 53.7956C45.7463 62.4649 52.3095 69.1796 59.5145 69.3849C66.6605 69.5883 72.1252 63.3235 73.5816 57.1875C75.0471 51.0118 72.5944 44.3699 67.293 40.2812" stroke="#141B34" stroke-width="8" stroke-miterlimit="10"/>
<path d="M35.19 38.3304C35.19 37.9686 35.4832 37.6754 35.8449 37.6754C36.2066 37.6754 36.4999 37.9686 36.4999 38.3304C36.4999 38.6922 36.2068 38.9854 35.8449 38.9854C35.4831 38.9854 35.19 38.6922 35.19 38.3304ZM44.9214 38.1472C44.9214 37.786 45.2143 37.4924 45.5766 37.4924C45.9388 37.4924 46.2317 37.7861 46.2317 38.1472C46.2317 38.5086 45.9387 38.8021 45.5766 38.8021C45.2144 38.8021 44.9214 38.5087 44.9214 38.1472Z" fill="#141B34" stroke="#141B34" stroke-width="8"/>
</svg>
