<svg width="233" height="53" viewBox="0 0 233 53" fill="none" xmlns="http://www.w3.org/2000/svg">
<path d="M42.0148 37.8772C40.9129 36.5561 39.6048 34.542 39.4082 31.978C39.2566 29.9977 39.8516 28.7816 40.6429 26.4904C42.1173 22.2216 43.6722 17.7194 42.9752 13.5945C42.8743 12.9974 42.2124 9.37065 39.4082 6.73494C33.0482 0.756858 16.9207 2.64158 12.9304 9.47876C12.635 9.98513 11.0454 12.7089 11.5585 15.9267C11.8059 17.4767 12.3002 18.4642 16.3602 24.2953C18.1153 26.8161 19.4062 28.1337 19.2412 30.0574C19.0527 32.2554 17.6879 34.1946 15.6742 35.1334L10.9392 27.5104C6.25966 29.1759 3.10016 33.2734 3.00234 37.6596C2.86734 43.7107 8.59423 48.754 14.6232 48.6947C19.7139 48.6445 24.3729 44.9623 25.8398 39.6302L32.8163 38.7148C32.8188 44.9071 37.5068 49.7033 42.6532 49.85C47.7575 49.9953 51.6609 45.5204 52.7012 41.1376C53.7479 36.7263 51.996 31.9821 48.2093 29.0616" stroke="#3C315B" stroke-width="5" stroke-miterlimit="10"/>
<path d="M25.6357 27.6681C25.6357 27.607 25.6852 27.5575 25.7464 27.5575C25.8075 27.5575 25.8571 27.607 25.8571 27.6681C25.8571 27.7294 25.8076 27.7788 25.7464 27.7788C25.6852 27.7788 25.6357 27.7294 25.6357 27.6681ZM32.5867 27.5373C32.5867 27.4765 32.6361 27.4267 32.6975 27.4267C32.759 27.4267 32.8084 27.4766 32.8084 27.5373C32.8084 27.5982 32.7589 27.6479 32.6975 27.6479C32.6362 27.6479 32.5867 27.5983 32.5867 27.5373Z" fill="#3C315B" stroke="#3C315B" stroke-width="5"/>
<path d="M69.7525 26.46C69.7525 20.02 74.2725 15.9 81.1525 15.9C88.0725 15.9 92.5925 20.3 92.5925 26.46C92.5925 32.66 88.0725 37.14 81.1525 37.14C74.2725 37.14 69.7525 32.9 69.7525 26.46ZM74.9525 26.46C74.9525 29.74 76.7525 32.42 81.1525 32.42C85.5925 32.42 87.3925 29.74 87.3925 26.46C87.3925 23.18 85.5925 20.62 81.1525 20.62C76.7125 20.62 74.9525 23.18 74.9525 26.46ZM95.4509 26.38C95.4509 19.86 99.7709 15.9 106.251 15.9C112.851 15.9 116.371 19.98 116.771 23.7H111.531C111.411 23.3 110.011 20.5 106.131 20.5C102.531 20.5 100.331 22.74 100.291 26.34C100.291 29.9 102.611 32.46 106.291 32.5C110.091 32.5 111.531 29.7 111.651 29.26H116.891C116.251 33.18 112.851 37.1 106.451 37.14C99.8509 37.1 95.4509 32.9 95.4509 26.38ZM123.559 29.78V20.78H119.559V16.5H123.559V8.94H128.439V16.5H133.639V20.78H128.439V29.78C128.439 31.46 129.199 31.94 131.079 31.94H133.439V36.5H128.599C124.839 36.5 123.559 32.98 123.559 29.78ZM136.549 26.46C136.549 20.02 141.069 15.9 147.949 15.9C154.869 15.9 159.389 20.3 159.389 26.46C159.389 32.66 154.869 37.14 147.949 37.14C141.069 37.14 136.549 32.9 136.549 26.46ZM141.749 26.46C141.749 29.74 143.549 32.42 147.949 32.42C152.389 32.42 154.189 29.74 154.189 26.46C154.189 23.18 152.389 20.62 147.949 20.62C143.509 20.62 141.749 23.18 141.749 26.46ZM168.248 34.94V46.5L163.328 46.54V16.54L168.248 16.5V17.94C168.248 19.14 167.568 20.54 167.168 21.7L168.008 21.98C168.408 20.82 168.608 19.18 169.408 18.34C170.888 16.78 172.968 15.86 175.648 15.86C181.648 15.86 185.768 20.5 185.648 26.42C185.488 32.18 181.448 37.1 175.648 37.1C173.008 37.1 170.928 36.06 169.448 34.5C168.608 33.66 168.408 32.02 168.008 30.9L167.168 31.18C167.528 32.34 168.248 33.74 168.248 34.94ZM174.968 20.42C171.248 20.42 169.128 22.98 169.128 26.34C169.128 29.74 171.248 32.54 174.968 32.54C178.728 32.54 180.728 29.74 180.728 26.34C180.728 22.98 178.728 20.42 174.968 20.42ZM202.274 35.26C200.634 36.86 199.114 37.1 196.354 37.1C192.434 37.1 188.634 34.74 188.634 30.22V16.5H193.554V27.06C193.554 31.22 195.434 32.78 198.114 32.78C201.034 32.78 203.434 31.02 203.434 27.06V16.5H208.314V36.5H203.434V35.7C203.474 34.62 204.194 33.38 204.554 32.34L203.714 32.02C203.354 33.06 203.074 34.5 202.274 35.26ZM231.614 30.02C231.614 33.9 228.574 37.14 222.054 37.14C215.174 37.14 211.934 33.06 211.934 29.7H216.854C216.854 30.74 218.814 32.54 222.574 32.54C225.614 32.54 226.614 31.46 226.614 30.34C226.614 26.42 212.094 29.02 212.094 21.82C212.094 18.7 215.094 15.9 221.414 15.9C228.494 15.9 231.174 19.38 231.174 22.18H226.254C226.254 20.9 224.374 19.9 221.134 19.9C218.934 19.9 217.014 20.5 217.014 21.78C217.014 24.66 231.614 21.9 231.614 30.02Z" fill="#3C315B"/>
</svg>
